<svg xmlns="http://www.w3.org/2000/svg" viewBox="0 0 835.527 729.905"><title>Asset 1</title><g style="isolation:isolate"><g id="Layer_2" data-name="Layer 2"><g id="Layer_1-2" data-name="Layer 1"><g id="_Group_" data-name="&lt;Group&gt;"><g id="_Group_2" data-name="&lt;Group&gt;"><path id="_Path_" fill="#b4aea8" d="M821.52731,698.1448H592.23009a13.9989,13.9989,0,0,0-12.9491-8.6852H165.7498a13.99908,13.99908,0,0,0-12.94909,8.6852H14A13.99988,13.99988,0,0,0,0,712.1446v3.7604a13.99992,13.99992,0,0,0,14,14H205.72009a13.99892,13.99892,0,0,0,12.949-8.6852h242.687a13.99912,13.99912,0,0,0,12.949,8.6852l347.22222-.0001a13.99983,13.99983,0,0,0,14-13.9999v-3.7604A13.99981,13.99981,0,0,0,821.52731,698.1448Z" data-name="&lt;Path&gt;" opacity=".3" style="mix-blend-mode:darken"/><g id="_Group_3" data-name="&lt;Group&gt;"><path id="_Path_2" fill="#ce324a" d="M672.86094,97.5625q-25.43655.00285-50.86888,0c-38.12561-.0111-71.54511-14.234-95.74231-37.1266h-.6932c-7.0208,88.4001-26.76,176.2062-52.5731,263.1676-14.7262,48.3723-5.0061,95.5994,26.4688,133.7623,31.1415,37.6734,84.0381,66.2825,147.974,66.1098h.0006c63.93529.1717,116.83169-28.4367,147.97389-66.1098,31.4751-38.1629,41.1952-85.3909,26.4692-133.7623-25.81288-86.9612-45.5521-174.7675-52.57288-263.1676h-.69392C744.40684,83.3301,710.98764,97.5522,672.86094,97.5625Z" data-name="&lt;Path&gt;"/><path id="_Path_3" fill="#c0304d" d="M721.43824,145.2541a74.15045,74.15045,0,0,0-74.01149,69.7125,74.1556,74.1556,0,1,0,0,8.8866,74.15033,74.15033,0,1,0,74.01149-78.5991Z" data-name="&lt;Path&gt;"/><circle id="_Path_4" cx="570.697" cy="210.506" r="74.156" fill="#ec7589" data-name="&lt;Path&gt;" transform="translate(-26.31966 327.03513) rotate(-31.29137)"/><circle id="_Path_5" cx="724.157" cy="210.506" r="74.156" fill="#ec7589" data-name="&lt;Path&gt;" transform="translate(-21.10144 95.15449) rotate(-7.41022)"/><circle id="_Path_6" cx="724.157" cy="210.506" r="60.014" fill="#fbfdfd" data-name="&lt;Path&gt;" transform="translate(-21.00495 94.53289) rotate(-7.36243)"/><circle id="_Path_7" cx="709.55" cy="230.841" r="25.158" fill="#070807" data-name="&lt;Path&gt;" transform="translate(63.67728 604.46891) rotate(-48.07024)"/><path id="_Path_8" fill="#58595b" d="M702.38544,218.8628a7.48653,7.48653,0,1,0,9.3364-4.9925A7.48668,7.48668,0,0,0,702.38544,218.8628Z" data-name="&lt;Path&gt;"/><circle id="_Path_9" cx="570.043" cy="210.506" r="60.014" fill="#fbfdfd" data-name="&lt;Path&gt;" transform="translate(-16.28146 50.86456) rotate(-5.03723)"/><circle id="_Path_10" cx="584.983" cy="230.598" r="25.158" fill="#070807" data-name="&lt;Path&gt;" transform="translate(204.59633 731.28451) rotate(-74.28916)"/><path id="_Path_11" fill="#58595b" d="M580.73785,227.2014a7.48652,7.48652,0,1,0-1.9216-10.4114A7.48646,7.48646,0,0,0,580.73785,227.2014Z" data-name="&lt;Path&gt;"/><path id="_Path_12" fill="#c0304d" d="M736.19334,353.8689c6.37272-27.9647,14.4392-48.7199,23.3142-63.0916-12.5583,13.505-24.1999,38.1102-32.777,75.748-11.27948,49.4965-1.89448,110.5365,3.8924,139.4926q5.6244-2.532,10.9814-5.3689C736.25044,476.0088,723.85024,408.0329,736.19334,353.8689Z" data-name="&lt;Path&gt;"/><path id="_Path_13" fill="#c0304d" d="M568.11245,366.5484c-8.557-37.5495-20.1646-62.1234-32.6895-75.6483,8.8447,14.3669,16.8829,35.0851,23.2372,62.9688,12.3431,54.1647-.0576,122.1415-5.4113,146.7811q1.03725.54915,2.0837,1.0882c.626.3214,1.252.643,1.88351.9584q1.507.7533,3.036,1.4822,1.02628.4902,2.06339.9684c.6333.2935,1.2712.5815,1.9095.8689C570.01225,477.0502,579.38875,416.0313,568.11245,366.5484Z" data-name="&lt;Path&gt;"/><g id="_Group_4" data-name="&lt;Group&gt;"><path id="_Path_14" fill="#c0304d" d="M702.89454,335.4017q12.1023,0,24.14752-9.1222a2.16654,2.16654,0,0,0-2.621-3.4505c-14.485,10.997-28.56962,10.9957-43.05492-.0014a2.16756,2.16756,0,0,0-2.6207,3.4533C686.75734,332.3603,694.82606,335.4017,702.89454,335.4017Z" data-name="&lt;Path&gt;"/><path id="_Path_15" fill="#c0304d" d="M645.83965,335.4017q12.10244,0,24.14759-9.1222a2.16654,2.16654,0,0,0-2.621-3.4505c-14.4851,10.997-28.56959,10.9957-43.055-.0014a2.16753,2.16753,0,0,0-2.6206,3.4533C629.70255,332.3603,637.77115,335.4017,645.83965,335.4017Z" data-name="&lt;Path&gt;"/><path id="_Path_16" fill="#c0304d" d="M588.78485,335.4017q12.10245,0,24.1475-9.1222a2.16654,2.16654,0,0,0-2.621-3.4505c-14.4849,10.997-28.5695,10.9957-43.0549-.0014a2.16756,2.16756,0,0,0-2.6207,3.4533C572.64765,332.3603,580.71635,335.4017,588.78485,335.4017Z" data-name="&lt;Path&gt;"/><path id="_Path_17" fill="#c0304d" d="M706.85654,362.2434a2.17024,2.17024,0,0,0,.4163,3.037c8.0119,6.0793,16.0806,9.1207,24.149,9.1207s16.1354-3.0414,24.1476-9.1221a2.1665,2.1665,0,0,0-2.621-3.4504c-14.485,10.997-28.5696,10.9955-43.0549-.0015A2.16789,2.16789,0,0,0,706.85654,362.2434Z" data-name="&lt;Path&gt;"/><path id="_Path_18" fill="#c0304d" d="M649.80185,362.2434a2.17006,2.17006,0,0,0,.4163,3.037c8.01179,6.0793,16.08039,9.1207,24.14879,9.1207s16.1355-3.0414,24.1477-9.1221a2.1665,2.1665,0,0,0-2.621-3.4504c-14.4851,10.997-28.56958,10.9955-43.0549-.0015A2.16776,2.16776,0,0,0,649.80185,362.2434Z" data-name="&lt;Path&gt;"/><path id="_Path_19" fill="#c0304d" d="M592.747,362.2434a2.17014,2.17014,0,0,0,.4162,3.037c8.01191,6.0793,16.0806,9.1207,24.1491,9.1207q12.10245,0,24.1476-9.1221a2.1665,2.1665,0,0,0-2.621-3.4504c-14.4851,10.997-28.5696,10.9955-43.055-.0015A2.16779,2.16779,0,0,0,592.747,362.2434Z" data-name="&lt;Path&gt;"/><path id="_Path_20" fill="#c0304d" d="M560.25745,374.4011q12.1023,0,24.1475-9.1221a2.1665,2.1665,0,0,0-2.621-3.4504c-14.48489,10.997-28.5695,10.9955-43.05489-.0015a2.16757,2.16757,0,0,0-2.62071,3.4533C544.12025,371.3597,552.189,374.4011,560.25745,374.4011Z" data-name="&lt;Path&gt;"/><path id="_Path_21" fill="#c0304d" d="M729.26206,401.2429a2.16424,2.16424,0,0,0-3.03542-.4149c-14.4851,10.997-28.56958,10.9956-43.055-.0013a2.16749,2.16749,0,1,0-2.62058,3.4532c8.01188,6.0794,16.08038,9.1208,24.14888,9.1208s16.1354-3.0414,24.1477-9.1223A2.16674,2.16674,0,0,0,729.26206,401.2429Z" data-name="&lt;Path&gt;"/><path id="_Path_22" fill="#c0304d" d="M672.20724,401.2429a2.16445,2.16445,0,0,0-3.0356-.4149c-14.4849,10.997-28.56939,10.9956-43.05479-.0013a2.16753,2.16753,0,1,0-2.6207,3.4532c8.01191,6.0794,16.0806,9.1208,24.149,9.1208s16.13539-3.0414,24.14759-9.1223A2.16662,2.16662,0,0,0,672.20724,401.2429Z" data-name="&lt;Path&gt;"/><path id="_Path_23" fill="#c0304d" d="M615.15255,401.2429a2.16448,2.16448,0,0,0-3.0356-.4149c-14.485,10.997-28.5696,10.9956-43.05489-.0013a2.16753,2.16753,0,1,0-2.62071,3.4532c8.0119,6.0794,16.0806,9.1208,24.149,9.1208s16.1354-3.0414,24.1476-9.1223A2.16666,2.16666,0,0,0,615.15255,401.2429Z" data-name="&lt;Path&gt;"/><path id="_Path_24" fill="#c0304d" d="M752.94844,439.8276c-14.485,10.997-28.5696,10.9955-43.0549-.0015a2.16753,2.16753,0,1,0-2.6207,3.4532c8.0119,6.0795,16.0806,9.1209,24.149,9.1209s16.1354-3.0414,24.1476-9.1222a2.1665,2.1665,0,0,0-2.621-3.4504Z" data-name="&lt;Path&gt;"/><path id="_Path_25" fill="#c0304d" d="M695.89364,439.8276c-14.4851,10.997-28.56958,10.9955-43.0549-.0015a2.16749,2.16749,0,0,0-2.62059,3.4532c8.01179,6.0795,16.08039,9.1209,24.14879,9.1209s16.1355-3.0414,24.1477-9.1222a2.1665,2.1665,0,0,0-2.621-3.4504Z" data-name="&lt;Path&gt;"/><path id="_Path_26" fill="#c0304d" d="M638.83885,439.8276c-14.4851,10.997-28.5696,10.9955-43.055-.0015a2.16753,2.16753,0,0,0-2.6207,3.4532c8.01191,6.0795,16.0806,9.1209,24.1491,9.1209q12.10245,0,24.1476-9.1222a2.1665,2.1665,0,0,0-2.621-3.4504Z" data-name="&lt;Path&gt;"/><path id="_Path_27" fill="#c0304d" d="M581.784,439.8276c-14.48489,10.997-28.5695,10.9955-43.05489-.0015a2.16753,2.16753,0,0,0-2.62071,3.4532c8.0119,6.0795,16.0806,9.1209,24.1491,9.1209q12.1023,0,24.1475-9.1222a2.1665,2.1665,0,0,0-2.621-3.4504Z" data-name="&lt;Path&gt;"/></g><path id="_Path_28" fill="#f15951" d="M818.36524,372.5946c15.36382-67.4193,3.7677-101.445-18.9236-106.6161-22.6911-5.1709-47.8845,20.4712-63.2483,87.8904s7.6113,156.2562,7.6113,156.2562S803.00154,440.0138,818.36524,372.5946Z" data-name="&lt;Path&gt;"/><path id="_Path_29" fill="#f15951" d="M476.48815,372.5946c-15.3638-67.4193-3.7676-101.445,18.9236-106.6161,22.6911-5.1709,47.8846,20.4712,63.2484,87.8904,15.3636,67.4192-7.6114,156.2562-7.6114,156.2562S491.85185,440.0138,476.48815,372.5946Z" data-name="&lt;Path&gt;"/><path id="_Compound_Path_" fill="#4a3b3c" d="M826.99524,190.0803a8.1097,8.1097,0,0,0-10.6948-2.9855l-15.4321,8.0984a78.22849,78.22849,0,0,0-149.5461-13.2477,79.11164,79.11164,0,0,0-3.89589,13.308,78.23133,78.23133,0,0,0-153.4491-.0591l-15.4335-8.0996a8.09669,8.09669,0,1,0-7.4856,14.3593l2.1333,1.1043a2.03876,2.03876,0,1,0,1.8743-3.6212l-2.1326-1.1045a4.01942,4.01942,0,0,1-1.5929-5.6458,4.0262,4.0262,0,0,1,5.3085-1.4814l16.6134,8.7182a78.22733,78.22733,0,0,0,154.1606,26.3552,78.29447,78.29447,0,0,0,76.77179,62.979h.0006a78.26883,78.26883,0,0,0,77.3928-89.3376l16.6069-8.7148a4.02418,4.02418,0,0,1,5.3085,1.4814,4.02036,4.02036,0,0,1-1.5916,5.6458l-2.1333,1.1045a2.03878,2.03878,0,1,0,1.8744,3.6212l2.134-1.1043a8.099,8.099,0,0,0,3.2084-11.3738ZM570.69645,284.6616a74.15565,74.15565,0,1,1,74.1557-74.1555A74.15569,74.15569,0,0,1,570.69645,284.6616Zm183.13549-6.1964a74.15561,74.15561,0,1,1,38.284-97.6343A74.15579,74.15579,0,0,1,753.83194,278.4652Z" data-name="&lt;Compound Path&gt;"/><path id="_Path_30" fill="#f9ed32" d="M668.99794,266.0196,647.42675,306.919l-21.5715-40.8994a10.51329,10.51329,0,0,1-.909-7.6414c5.1049-18.3162,39.85581-18.3162,44.961,0A10.51239,10.51239,0,0,1,668.99794,266.0196Z" data-name="&lt;Path&gt;"/><path id="_Path_31" fill="#f8eca4" d="M658.08984,262.1067c-2.954.9899-18.37239.9896-21.32629,0-3.3627-.7763-.5341-11.6754,10.66351-11.8998C658.62364,250.4325,661.45274,261.3297,658.08984,262.1067Z" data-name="&lt;Path&gt;"/></g><path id="_Path_32" fill="#f7941d" d="M574.83929,590.0842v-80.228h11.3432V498.5135H268.44471A51.45666,51.45666,0,0,0,216.988,549.97v.0001a51.45662,51.45662,0,0,0,51.45672,51.4566H586.18249V590.0842Z" data-name="&lt;Path&gt;"/><path id="_Path_33" fill="#d1d3d4" d="M268.44471,590.0842a40.114,40.114,0,0,1,0-80.228H574.83929v80.228Z" data-name="&lt;Path&gt;"/><path id="_Path_34" fill="#e3e3e3" d="M229.204,558.2878a40.17943,40.17943,0,0,0,39.24072,31.7964H574.83929V526.4925H268.44471A40.17876,40.17876,0,0,0,229.204,558.2878Z" data-name="&lt;Path&gt;"/><path id="_Path_35" fill="#da3926" d="M538.46929,693.9974V613.7693h11.3431V602.4267H232.07459A51.45648,51.45648,0,0,0,180.618,653.8831v.0001a51.45652,51.45652,0,0,0,51.45659,51.4566h317.7378V693.9974Z" data-name="&lt;Path&gt;"/><path id="_Path_36" fill="#d1d3d4" d="M232.07459,692.9974a40.11405,40.11405,0,0,1,0-80.2281h306.3947v80.2281Z" data-name="&lt;Path&gt;"/><path id="_Path_37" fill="#e3e3e3" d="M192.834,661.2009a40.17929,40.17929,0,0,0,39.24059,31.7965h306.3947V629.4056H232.07459A40.17874,40.17874,0,0,0,192.834,661.2009Z" data-name="&lt;Path&gt;"/><g id="_Group_5" data-name="&lt;Group&gt;"><g id="_Group_6" data-name="&lt;Group&gt;"><rect id="_Path_38" width="15.124" height="77.416" x="102.055" y="439.744" fill="#f2c333" data-name="&lt;Path&gt;"/><rect id="_Path_39" width="7.562" height="77.416" x="109.617" y="439.744" fill="#e5b631" data-name="&lt;Path&gt;"/><rect id="_Path_40" width="15.124" height="3.025" x="102.055" y="436.719" fill="#e6e7e8" data-name="&lt;Path&gt;"/><rect id="_Path_41" width="15.124" height="3.025" x="102.055" y="433.694" fill="#d1d3d4" data-name="&lt;Path&gt;"/><path id="_Path_42" fill="#ca2c2d" d="M114.2418,422.6348h-9.2489a2.93748,2.93748,0,0,0-2.9375,2.9375v8.1219h15.1239v-8.1219A2.93755,2.93755,0,0,0,114.2418,422.6348Z" data-name="&lt;Path&gt;"/></g><g id="_Group_7" data-name="&lt;Group&gt;"><rect id="_Path_43" width="15.124" height="88.759" x="78.219" y="439.636" fill="#0d9f5f" data-name="&lt;Path&gt;" transform="translate(-25.83753 5.29773) rotate(-3.07463)"/><rect id="_Path_44" width="7.562" height="88.759" x="85.775" y="439.434" fill="#0d9956" data-name="&lt;Path&gt;" transform="translate(-25.82787 5.50155) rotate(-3.07543)"/><rect id="_Path_45" width="15.644" height="3.025" x="75.238" y="436.692" fill="#d1d3d4" data-name="&lt;Path&gt;" transform="translate(-23.38196 5.08529) rotate(-3.07433)"/><path id="_Path_46" fill="#e6e7e8" d="M72.1548,437.4052l1.8674,34.7704a3.02481,3.02481,0,0,0,3.1827,2.8582h0l-2.0785-38.6993-2.1119.1134A.90988.90988,0,0,0,72.1548,437.4052Z" data-name="&lt;Path&gt;"/><path id="_Path_47" fill="#0d9f5f" d="M82.4832,422.6159h0a6.90038,6.90038,0,0,0-6.5204,7.2603l.3854,7.1737,13.7806-.7402-.3852-7.1735A6.90026,6.90026,0,0,0,82.4832,422.6159Z" data-name="&lt;Path&gt;"/><path id="_Path_48" fill="#0d9956" d="M90.1288,436.3096l-.3852-7.1734a6.90035,6.90035,0,0,0-7.2605-6.5203l.7553,14.0637Z" data-name="&lt;Path&gt;"/></g><g id="_Group_8" data-name="&lt;Group&gt;"><polygon id="_Path_49" fill="#f2c333" points="128.2 468.571 124.75 517.159 139.912 517.159 143.286 469.642 128.2 468.571" data-name="&lt;Path&gt;"/><polyline id="_Path_50" fill="#f2c333" points="124.75 517.159 139.912 517.159 143.286 469.642" data-name="&lt;Path&gt;"/><polygon id="_Path_51" fill="#e5b631" points="135.743 469.106 132.331 517.159 139.912 517.159 142.917 474.833 143.286 469.642 135.743 469.106" data-name="&lt;Path&gt;"/><rect id="_Path_52" width="3.025" height="15.124" x="134.337" y="460.035" fill="#e6e7e8" data-name="&lt;Path&gt;" transform="translate(-340.19335 569.99646) rotate(-85.93959)"/><rect id="_Path_53" width="3.025" height="15.124" x="134.551" y="457.018" fill="#d1d3d4" data-name="&lt;Path&gt;" transform="translate(-336.98474 567.4063) rotate(-85.93957)"/><path id="_Path_54" fill="#ca2c2d" d="M141.5669,452.3675l-9.2257-.6549a2.9376,2.9376,0,0,0-3.1381,2.7221l-.5751,8.1015,15.0859,1.0709.5751-8.1015A2.93747,2.93747,0,0,0,141.5669,452.3675Z" data-name="&lt;Path&gt;"/></g><path id="_Path_55" fill="#979c9c" d="M35.56371,517.1593H184.1563L171.8701,697.0257c-.7449,10.9049-10.69,19.4025-22.7075,19.4025H70.5574c-12.01769,0-21.9626-8.4976-22.7075-19.4025Z" data-name="&lt;Path&gt;"/><rect id="_Path_56" width="25.9" height="199.269" x="77.312" y="517.159" fill="#a7a9ac" data-name="&lt;Path&gt;"/></g><rect id="_Path_57" width="316.468" height="241.39" x="489.682" y="469.389" fill="#8d5139" data-name="&lt;Path&gt;"/><rect id="_Path_58" width="282.439" height="207.361" x="506.696" y="487.404" fill="#262626" data-name="&lt;Path&gt;"/><rect id="_Path_59" width="14.085" height="205.826" x="475.597" y="498.514" fill="#59595a" data-name="&lt;Path&gt;" opacity=".1" style="mix-blend-mode:darken"/><rect id="_Path_60" width="282.439" height="16.965" x="506.696" y="486.404" fill="#1b1b1b" data-name="&lt;Path&gt;"/><g id="_Group_9" data-name="&lt;Group&gt;"><path id="_Path_61" fill="#3f3233" d="M647.42175,82.9359l-70.7464-21.1377V98.4081c.0001,32.4445,145.33339,32.4445,145.33339,0V60.6506Z" data-name="&lt;Path&gt;"/></g><polygon id="_Path_62" fill="#4a3b3c" points="647.422 0 647.422 0 502.495 43.301 647.422 86.602 647.422 86.602 792.348 43.301 647.422 0" data-name="&lt;Path&gt;"/><polygon id="_Path_63" fill="#352a2c" points="647.422 95.269 722.009 72.984 722.009 64.317 647.422 86.603 576.675 65.465 576.675 74.132 647.422 95.269" data-name="&lt;Path&gt;"/><g id="_Group_10" data-name="&lt;Group&gt;"><path id="_Path_64" fill="#fbb040" d="M726.34984,94.2906a.99972.99972,0,0,1-1-1V63.8016L647.17945,44.2714a.99954.99954,0,1,1,.4844-1.9395l78.92821,19.7187a.99889.99889,0,0,1,.75778.9698V93.2906A.99966.99966,0,0,1,726.34984,94.2906Z" data-name="&lt;Path&gt;"/></g><path id="_Path_65" fill="#f2c333" d="M729.34206,85.2906a2.99241,2.99241,0,1,1-2.99242-2.9923A2.99236,2.99236,0,0,1,729.34206,85.2906Z" data-name="&lt;Path&gt;"/><path id="_Path_66" fill="#fbb040" d="M728.77124,87.0361a2.9747,2.9747,0,0,1-4.8431,0c-2.4302,1.8516-3.3758,4.5365-3.1486,7.8795,0,2.5417,11.1403,2.5417,11.1403,0C732.14694,91.5726,731.20144,88.8877,728.77124,87.0361Z" data-name="&lt;Path&gt;"/><path id="_Path_67" fill="#eda23d" d="M728.88814,87.1378c-.0412-.0326-.0747-.0696-.1169-.1017a2.9747,2.9747,0,0,1-4.8431,0c-.13408.1022-.2466.2162-.3717.3234a2.97562,2.97562,0,0,0,5.3317-.2217Z" data-name="&lt;Path&gt;"/><path id="_Path_68" fill="#eda23d" d="M726.34964,82.2982a2.96518,2.96518,0,0,1,1.0002.1841v-.4375a2.808,2.808,0,0,0-2,0v.4375A2.96134,2.96134,0,0,1,726.34964,82.2982Z" data-name="&lt;Path&gt;"/><path id="_Path_69" fill="#3f3233" d="M647.17945,44.2714a.97111.97111,0,0,1-.25839-.1229.9931.9931,0,0,0,.72719.7635l75.86781,18.9551.95428-.2852Z" data-name="&lt;Path&gt;"/></g></g></g></g></g></svg>