<svg xmlns="http://www.w3.org/2000/svg" xmlns:xlink="http://www.w3.org/1999/xlink" id="Facebook" width="64" height="64" enable-background="new 0 0 64 64" version="1.1" viewBox="0 0 64 64" xml:space="preserve"><linearGradient id="Circle_Shadow_1_" x1="886.03" x2="854.03" y1="-1089.998" y2="-1057.998" gradientTransform="matrix(1 0 0 -1 -822 -1026)" gradientUnits="userSpaceOnUse"><stop offset=".316" style="stop-color:#fff;stop-opacity:0"/><stop offset=".351" style="stop-color:#e9e9e9;stop-opacity:.0504"/><stop offset=".454" style="stop-color:#acacac;stop-opacity:.2018"/><stop offset=".557" style="stop-color:#787878;stop-opacity:.3523"/><stop offset=".657" style="stop-color:#4d4d4d;stop-opacity:.4981"/><stop offset=".753" style="stop-color:#2b2b2b;stop-opacity:.6385"/><stop offset=".844" style="stop-color:#131313;stop-opacity:.7719"/><stop offset=".929" style="stop-color:#050505;stop-opacity:.8956"/><stop offset="1" style="stop-color:#000"/></linearGradient><polygon id="Circle_Shadow" fill="url(#Circle_Shadow_1_)" points="64.029 64 64.029 30.059 49 15.029 15.059 48.971 30.088 64" enable-background="new" opacity=".2"/><circle id="Circle" cx="32" cy="32" r="24" fill="#3A5BA0"/><g id="f_shadow"><g><defs><circle id="SVGID_1_" cx="32.029" cy="32" r="24"/></defs><clipPath id="SVGID_2_"><use overflow="visible" xlink:href="#SVGID_1_"/></clipPath><linearGradient id="SVGID_3_" x1="349.447" x2="298.612" y1="-367.892" y2="-325.236" gradientTransform="matrix(1 0 0 -1 -274 -299)" gradientUnits="userSpaceOnUse"><stop offset=".582" style="stop-color:#000;stop-opacity:0"/><stop offset=".631" style="stop-color:#000;stop-opacity:.117"/><stop offset="1" style="stop-color:#000"/></linearGradient><path fill="url(#SVGID_3_)" d="M70.029,54h2v-5 c0,0-0.039,0-0.105,0v-0.105c0,0-0.04,0-0.107,0v-0.106c0,0-0.039,0-0.105,0v-0.106c0,0-0.04,0-0.105,0v-0.104 c0,0-0.041,0-0.106,0v-0.106c0,0-0.04,0-0.106,0v-0.105c0,0-0.039,0-0.105,0v-0.106c0,0-0.04,0-0.105,0v-0.106 c0,0-0.041,0-0.106,0v-0.105c0,0-0.04,0-0.106,0v-0.105c0,0-0.039,0-0.105,0V47.83c0,0-0.039,0-0.105,0v-0.105c0,0-0.04,0-0.105,0 v-0.105c0,0-0.041,0-0.106,0v-0.105c0,0-0.04,0-0.106,0v-0.106c0,0-0.039,0-0.105,0v-0.106c0,0-0.04,0-0.105,0v-0.105 c0,0-0.041,0-0.106,0v-0.106c0,0-0.04,0-0.106,0V46.98c0,0-0.039,0-0.105,0v-0.106c0,0-0.04,0-0.106,0v-0.106c0,0-0.04,0-0.106,0 v-0.105c0,0-0.039,0-0.105,0v-0.105c0,0-0.04,0-0.105,0V46.45c0,0-0.041,0-0.106,0v-0.106c0,0-0.04,0-0.106,0v-0.104 c0,0-0.039,0-0.105,0V46.13c0,0-0.04,0-0.105,0v-0.106c0,0-0.041,0-0.106,0v-0.105c0,0-0.04,0-0.106,0v-0.105c0,0-0.039,0-0.105,0 v-0.106c0,0-0.04,0-0.106,0v-0.104c0,0-0.04,0-0.106,0v-0.107c0,0-0.039,0-0.104,0v-0.105c0,0-0.04,0-0.106,0v-0.105 c0,0-0.039,0-0.105,0v-0.106c0,0-0.04,0-0.105,0V45.07c0,0-0.041,0-0.106,0v-0.11c0,0-0.04,0-0.106,0v-0.106c0,0-0.039,0-0.105,0 v-0.105c0,0-0.04,0-0.105,0v-0.105c0,0-0.041,0-0.106,0v-0.105c0,0-0.04,0-0.106,0v-0.105c0,0-0.039,0-0.105,0v-0.106 c0,0-0.041,0-0.106,0v-0.106c0,0-0.04,0-0.106,0v-0.105c0,0-0.039,0-0.105,0v-0.105c0,0-0.04,0-0.105,0V43.9c0,0-0.041,0-0.106,0 v-0.104c0,0-0.04,0-0.106,0v-0.106c0,0-0.039,0-0.105,0v-0.105c0,0-0.04,0-0.105,0v-0.105c0,0-0.041,0-0.106,0v-0.106 c0,0-0.04,0-0.106,0V43.26c0,0-0.04,0-0.105,0v-0.107c0,0-0.041,0-0.106,0v-0.104c0,0-0.04,0-0.106,0v-0.108c0,0-0.039,0-0.105,0 v-0.105c0,0-0.04,0-0.105,0v-0.105c0,0-0.041,0-0.106,0v-0.106c0,0-0.04,0-0.106,0v-0.106c0,0-0.039,0-0.105,0v-0.104 c0,0-0.04,0-0.105,0v-0.106c0,0-0.041,0-0.106,0v-0.105c0,0-0.039,0-0.105,0V42.09c0,0-0.04,0-0.106,0v-0.105c0,0-0.039,0-0.105,0 v-0.106c0,0-0.04,0-0.107,0v-0.106c0,0-0.039,0-0.104,0v-0.104c0,0-0.04,0-0.106,0v-0.106c0,0-0.039,0-0.105,0v-0.105 c0,0-0.04,0-0.105,0V41.35c0,0-0.041,0-0.106,0v-0.106c0,0-0.04,0-0.106,0v-0.106c0,0-0.039,0-0.105,0v-0.105c0,0-0.04,0-0.106,0 V40.92c0,0-0.04,0-0.106,0v-0.105c0,0-0.039,0-0.105,0v-0.106c0,0-0.04,0-0.105,0v-0.104c0,0-0.041,0-0.106,0v-0.106 c0,0-0.04,0-0.106,0v-0.106c0,0-0.039,0-0.105,0v-0.105c0,0-0.04,0-0.105,0V40.18c0,0-0.041,0-0.106,0V40.07c0,0-0.04,0-0.106,0 v-0.107c0,0-0.039,0-0.105,0v-0.105c0,0-0.04,0-0.106,0v-0.105c0,0-0.04,0-0.106,0v-0.105c0,0-0.039,0-0.105,0V39.54 c0,0-0.04,0-0.105,0v-0.106c0,0-0.041,0-0.106,0v-0.104c0,0-0.04,0-0.106,0v-0.108c0,0-0.039,0-0.105,0v-0.106 c0,0-0.039,0-0.105,0v-0.106c0,0-0.039,0-0.106,0V38.9c0,0-0.039,0-0.104,0v-0.106c0,0-0.041,0-0.107,0v-0.106 c0,0-0.039,0-0.105,0v-0.104c0,0-0.039,0-0.107,0v-0.106c0,0-0.038,0-0.104,0v-0.105c0,0-0.04,0-0.106,0v-0.105 c0,0-0.039,0-0.105,0v-0.106c0,0-0.04,0-0.105,0V38.05c0,0-0.041,0-0.106,0v-0.106c0,0-0.04,0-0.106,0v-0.105c0,0-0.039,0-0.105,0 V37.73c0,0-0.04,0-0.105,0v-0.105c0,0-0.041,0-0.106,0v-0.107c0,0-0.04,0-0.106,0v-0.104c0,0-0.039,0-0.105,0v-0.106 c0,0-0.04,0-0.106,0v-0.105c0,0-0.04,0-0.106,0v-0.105c0,0-0.039,0-0.105,0v-0.106c0,0-0.04,0-0.105,0v-0.105c0,0-0.041,0-0.106,0 v-0.106c0,0-0.04,0-0.106,0v-0.105c0,0-0.039,0-0.105,0v-0.105c0,0-0.04,0-0.105,0V36.46c0,0-0.041,0-0.106,0v-0.106 c0,0-0.04,0-0.106,0v-0.105c0,0-0.039,0-0.105,0v-0.105c0,0-0.04,0-0.106,0v-0.113c0,0-0.04,0-0.106,0v-0.105c0,0-0.038,0-0.104,0 v-0.105c0,0-0.04,0-0.106,0v-0.106c0,0-0.039,0-0.105,0v-0.104c0,0-0.04,0-0.105,0V35.5c0,0-0.041,0-0.106,0v-0.105 c0,0-0.04,0-0.106,0v-0.105c0,0-0.039,0-0.105,0V35.18c0,0-0.04,0-0.105,0v-0.105c0,0-0.041,0-0.106,0v-0.106c0,0-0.04,0-0.106,0 v-0.108c0,0-0.039,0-0.105,0v-0.105c0,0-0.04,0-0.106,0v-0.105c0,0-0.04,0-0.106,0v-0.105c0,0-0.039,0-0.105,0v-0.105 c0,0-0.04,0-0.105,0v-0.106c0,0-0.041,0-0.106,0v-0.106c0,0-0.04,0-0.106,0v-0.105c0,0-0.039,0-0.105,0V34.01c0,0-0.04,0-0.105,0 v-0.105c0,0-0.041,0-0.106,0v-0.106c0,0-0.04,0-0.106,0v-0.104c0,0-0.039,0-0.105,0v-0.106c0,0-0.04,0-0.106,0V33.48 c0,0-0.038,0-0.104,0v-0.105c0,0-0.04,0-0.106,0V33.27c0,0-0.04,0-0.106,0v-0.106c0,0-0.039,0-0.105,0v-0.106c0,0-0.04,0-0.107,0 v-0.105c0,0-0.039,0-0.104,0v-0.105c0,0-0.04,0-0.106,0V32.74c0,0-0.039,0-0.105,0v-0.106c0,0-0.04,0-0.105,0v-0.106 c0,0-0.041,0-0.106,0v-0.105c0,0-0.04,0-0.106,0V32.31c0,0-0.039,0-0.105,0v-0.107c0,0-0.04,0-0.106,0v-0.106c0,0-0.04,0-0.106,0 V31.99c0,0-0.039,0-0.105,0v-0.106c0,0-0.04,0-0.105,0v-0.107c0,0-0.041,0-0.106,0v-0.106c0,0-0.04,0-0.106,0v-0.106 c0,0-0.039,0-0.104,0V31.46c0,0-0.04,0-0.106,0v-0.107c0,0-0.041,0-0.106,0v-0.106c0,0-0.04,0-0.106,0V31.14c0,0-0.039,0-0.104,0 v-0.106c0,0-0.04,0-0.107,0v-0.106c0,0-0.04,0-0.106,0V30.82c0,0-0.039,0-0.105,0v-0.105c0,0-0.039,0-0.105,0v-0.106 c0,0-0.039,0-0.106,0v-0.106c0,0-0.04,0-0.106,0v-0.107c0,0-0.039,0-0.105,0V30.29c0,0-0.039,0-0.105,0v-0.106 c0,0-0.039,0-0.106,0v-0.106c0,0-0.04,0-0.106,0V29.97c0,0-0.039,0-0.105,0v-0.106c0,0-0.039,0-0.105,0v-0.106 c0,0-0.039,0-0.107,0v-0.106c0,0-0.039,0-0.105,0v-0.106c0,0-0.04,0-0.105,0V29.44c0,0-0.039,0-0.105,0v-0.105c0,0-0.04,0-0.105,0 v-0.107c0,0-0.041,0-0.106,0V29.12c0,0-0.04,0-0.106,0v-0.106c0,0-0.039,0-0.105,0v-0.106c0,0-0.04,0-0.105,0v-0.106 c0,0-0.041,0-0.106,0v-0.106c0,0-0.04,0-0.106,0V28.59c0,0-0.039,0-0.105,0v-0.105c0,0-0.04,0-0.106,0v-0.107c0,0-0.04,0-0.106,0 v-0.106c0,0-0.039,0-0.105,0v-0.105c0,0-0.04,0-0.105,0v-0.106c0,0-0.041,0-0.106,0V27.95c0,0-0.04,0-0.106,0v-0.106 c0,0-0.039,0-0.104,0v-0.106c0,0-0.04,0-0.106,0v-0.106c0,0-0.039,0-0.105,0v-0.106c0,0-0.04,0-0.107,0v-0.107 c0,0-0.039,0-0.104,0v-0.105c0,0-0.04,0-0.106,0v-0.106c0,0-0.039,0-0.105,0V27.1c0,0-0.04,0-0.107,0v-0.106c0,0-0.039,0-0.105,0 v-0.106c0,0-0.039,0-0.105,0v-0.106c0,0-0.04,0-0.105,0v-0.107c0,0-0.041,0-0.107,0v-0.106c0,0-0.039,0-0.105,0v-0.106 c0,0-0.039,0-0.105,0v-0.106c0,0-0.04,0-0.105,0V26.25c0,0-0.041,0-0.107,0v-0.106c0,0-0.039,0-0.105,0v-0.106 c0,0-0.039,0-0.105,0v-0.105c0,0-0.04,0-0.106,0v-0.107c0,0-0.04,0-0.106,0V25.72c0,0-0.039,0-0.105,0v-0.106c0,0-0.039,0-0.105,0 v-0.106c0,0-0.039,0-0.106,0v-0.106c0,0-0.04,0-0.106,0v-0.107c0,0-0.039,0-0.105,0V25.19c0,0-0.039,0-0.105,0v-0.11 c0,0-0.039,0-0.106,0v-0.106c0,0-0.039,0-0.104,0v-0.106c0,0-0.041,0-0.107,0v-0.106c0,0-0.04,0-0.106,0v-0.106 c0,0-0.038,0-0.104,0V24.55c0,0-0.04,0-0.106,0v-0.106c0,0-0.04,0-0.106,0v-0.106c0,0-0.039,0-0.105,0v-0.106c0,0-0.04,0-0.105,0 v-0.106c0,0-0.041,0-0.106,0V24.02c0,0-0.04,0-0.106,0v-0.11c0,0-0.041,0-0.106,0v-0.106c0,0-0.039,0-0.104,0v-0.106 c0,0-0.041,0-0.106,0v-0.106c0,0-0.04,0-0.106,0v-0.107c0,0-0.039,0-0.105,0v-0.106c0,0-0.04,0-0.106,0v-0.106c0,0-0.04,0-0.106,0 v-0.106c0,0-0.039,0-0.105,0V23.06c0,0-0.04,0-0.105,0v-0.106c0,0-0.041,0-0.106,0v-0.106c0,0-0.04,0-0.106,0v-0.106 c0,0-0.039,0-0.105,0v-0.106c0,0-0.04,0-0.105,0V22.53c0,0-0.041,0-0.106,0v-0.106c0,0-0.04,0-0.106,0v-0.107c0,0-0.039,0-0.105,0 v-0.106c0,0-0.04,0-0.106,0v-0.107c0,0-0.038,0-0.104,0v-0.105c0,0-0.04,0-0.107,0V21.89c0,0-0.039,0-0.105,0v-0.106 c0,0-0.039,0-0.105,0v-0.106c0,0-0.04,0-0.105,0v-0.106c0,0-0.041,0-0.106,0v-0.107c0,0-0.04,0-0.106,0v-0.106 c0,0-0.039,0-0.106,0v-0.106c0,0-0.039,0-0.104,0v-0.106c0,0-0.041,0-0.106,0V21.04c0,0-0.04,0-0.106,0v-0.106 c0,0-0.039,0-0.105,0v-0.106c0,0-0.04,0-0.106,0v-0.106c0,0-0.04,0-0.106,0v-0.106c0,0-0.039,0-0.105,0V20.51c0,0-0.04,0-0.105,0 v-0.106c0,0-0.041,0-0.106,0v-0.106c0,0-0.04,0-0.106,0v-0.106c0,0-0.039,0-0.105,0v-0.106c0,0-0.04,0-0.105,0V19.98 c0,0-0.041,0-0.106,0v-0.106c0,0-0.04,0-0.106,0v-0.107c0,0-0.039,0-0.105,0v-0.106c0,0-0.04,0-0.106,0v-0.106c0,0-0.04,0-0.106,0 v-0.106c0,0-0.039,0-0.105,0v-0.106c0,0-0.04,0-0.105,0v-0.106c0,0-0.041,0-0.106,0v-0.106c0,0-0.04,0-0.106,0V19.02 c0,0-0.039,0-0.105,0v-0.106c0,0-0.04,0-0.105,0v-0.106c0,0-0.041,0-0.106,0v-0.106c0,0-0.039,0-0.104,0v-0.106 c0,0-0.041,0-0.106,0V18.49c0,0-0.04,0-0.106,0v-0.107c0,0-0.039,0-0.105,0v-0.105c0,0-0.04,0-0.106,0v-0.107c0,0-0.04,0-0.106,0 v-0.106c0,0-0.039,0-0.105,0v-0.107c0,0-0.04,0-0.105,0v-0.106c0,0-0.041,0-0.106,0v-0.106c0,0-0.04,0-0.106,0V17.64 c0,0-0.039,0-0.105,0v-0.107c0,0-0.04,0-0.105,0v-0.105c0,0-0.041,0-0.106,0v-0.107c0,0-0.04,0-0.106,0v-0.106 c0,0-0.039,0-0.105,0v-0.106c0,0-0.04,0-0.106,0V17c0,0-2.05,0-4,0c-4.072,0-7,2.435-7,7v4h-5v5h0.106v0.105h0.106v0.106h0.107 v0.106h0.106v0.105h0.106v0.105h0.107v0.105h0.106v0.106h0.106v0.106h0.107v0.105h0.106v0.105h0.106v0.106h0.107v0.106h0.106 v0.104h0.106v0.106h0.107v0.105h0.105v0.105h0.106V34.8h0.107v0.106h0.106v0.104h0.106v0.107h0.106v0.104h0.106v0.106h0.106v0.106 h0.106v0.104h0.106v0.106h0.106v0.106h0.107v0.104h0.106v0.107h0.106v0.105h0.106v0.105h0.106v0.106h0.106v0.104h0.106v0.107 h0.106V36.6h0.107v0.105h0.106v0.107h0.106v0.104h0.107v0.106h0.106v0.105h0.105v0.105h0.106v0.106h0.107v0.104H28.7v0.107h0.107 v0.105h0.106v0.105h0.106v0.106H29V47h0.106v0.105h0.106v0.106h0.106v0.106h0.106v0.105h0.106v0.105h0.107v0.105h0.106v0.106 h0.106v0.106h0.106v0.105h0.106v0.105h0.107v0.106h0.106v0.106h0.106v0.104h0.106v0.106h0.106v0.105h0.106V48.7h0.107v0.106h0.106 v0.106h0.106v0.104h0.107v0.107h0.106v0.105h0.106v0.105h0.107v0.105h0.106v0.105h0.106v0.107h0.106v0.105h0.106v0.105h0.107 v0.107h0.106v0.104h0.106v0.106h0.106v0.105h0.106v0.105h0.107V50.5h0.106v0.107h0.105v0.104h0.106v0.106h0.106v0.105h0.105v0.105 h0.105v0.106h0.105v0.105h0.105v0.106h0.106v0.105h0.106v0.107h0.106v0.104h0.106v0.106h0.104v0.105h0.106v0.105h0.105v0.105H34.2 v0.105h0.106V52.3h0.106v0.106h0.104v0.105h0.106v0.106h0.106v0.104h0.105v0.107h0.105v0.105h0.106v0.105h0.106v0.105h0.105v0.106 h0.106v0.106h0.106v0.105h0.105v0.105h0.105v0.106h0.105v0.104h0.107v0.106h0.105v0.106h0.105V54.1h0.106v0.106h0.104v0.106h0.107 v0.104h0.106v0.106h0.104v0.105h0.106v0.105h0.106v0.106h0.105v0.106h0.107v0.105h0.104v0.105H37.3v0.105h0.106v0.106h0.105v0.106 h0.106v0.105h0.106v0.105h0.105v0.106h0.105V55.9h0.106v0.105h0.106v0.105h0.105v0.105h0.105v0.105h0.106v0.106h0.104v0.106h0.107 v0.105h0.106v0.106h0.106v0.104h0.104v0.106h0.106V57.1h0.106v0.106h0.106v0.106h0.104v0.104h0.106v0.106h0.105v0.105h0.105v0.107 h0.106v0.104h0.106v0.106h0.107v0.105h0.104v0.106h0.106v0.104h0.105v0.107h0.105v0.105h0.106v0.105h0.106v0.105h0.105v0.106 h0.105V58.9h0.106v0.105h0.106v0.105h0.105v0.105h0.106v0.107h0.106v0.105h0.105v0.105h0.105v0.105h0.106v0.106h0.106v0.104h0.104 v0.106h0.106v0.106h0.106v0.105h0.104v0.105h0.107v0.105h0.105v0.107H42.6v0.105h0.104V60.7h0.106v0.104h0.105v0.106h0.105v0.106 h0.106v0.105h0.106v0.105h0.105v0.105h0.107v0.107h0.104v0.104h0.104v0.106h0.107v0.105h0.106v0.105h0.106v0.106h0.105v0.106 h0.105v0.105h0.106v0.105H44.4v0.107h0.104v0.104h0.106v0.106h0.106v0.105h0.106v0.105h0.104v0.106h0.107v0.104h0.104v0.107h0.106 v0.105h0.106v0.105h0.106v0.106h0.14v0.106h0.107v0.105h0.105v0.105h0.105v0.105h0.105v0.105h0.106v0.106h0.106v0.106h0.105v0.105 h0.106v0.105h0.106v0.106h0.105v0.105h0.105v0.106h0.106v0.105h0.106v0.105h0.105v0.106h0.105v0.106h0.106v0.104h0.106v0.106 h0.105v0.105h0.105v0.107h0.106v0.104h0.105v0.106h0.106v0.105h0.105v0.105h0.105V66.1h0.107v0.104h0.105v0.106h0.105v0.105h0.107 v0.105h0.104v0.106h0.106v0.106h0.105v0.105h0.106v0.105h0.106v0.105h0.105v0.106h0.105v0.106h0.106v0.105h0.106v0.105h0.105 v0.106h0.105v0.104h0.106v0.107h0.106v0.105h0.104v0.105h0.106v0.105h0.107v0.106h0.105v0.106h0.105v0.105h0.106v0.105h0.104 v0.105h0.107v0.106h0.105V68.9h0.105v0.105h0.107v0.105h0.105v0.106h0.105v0.106h0.106v0.105h0.105v0.105h0.106v0.105h0.105v0.106 h0.105v0.106h0.106v0.104h0.106v0.106h0.105v0.105h0.105v0.107h0.106v0.104h0.106v0.106h0.105v0.105h0.105V70.7h0.107v0.104h0.104 v0.106h0.106v0.106h0.106v0.105h0.106v0.105h0.105v0.106h0.105v0.106h0.105v0.105h0.105v0.106h0.106v0.104h0.106v0.106h0.106 v0.106h0.106v0.105h0.105v0.105h0.105v0.106h0.105v0.104h0.106V72.5h0.106v0.105h0.105v0.105h0.105v0.105h0.106v0.106h0.106v0.106 h0.105v0.105h0.105v0.105h0.107v0.105h0.105v0.106h0.105v0.106h0.106v0.105h0.106v0.105h0.105v0.106h0.105v0.106h0.106v0.104 h0.106v0.106h0.105v0.105h0.105v0.106h0.105v0.106h0.106v0.104h0.106v0.106h0.106v0.105h0.106v0.105h0.104v0.106h0.106v0.106 h0.105v0.105h0.105v0.106h0.106v0.104h0.106v0.106h0.105v0.106h0.106v0.105h0.106v0.105h0.105v0.106h0.105V76.1h0.106v0.105h0.106 v0.105h0.105v0.105h0.105v0.106h0.106v0.106h0.106v0.105h0.105v0.105h0.105v0.106h0.107v0.104h0.105v0.106h0.105v0.106h0.105 v0.105h0.105v0.105h0.107v0.106h0.105v0.104H59.8v0.107h0.104v0.105h0.106v0.105h0.106v0.106h0.105v0.106h0.106v0.105h0.106v0.105 h0.105v0.105h0.105v0.105h0.106v0.106h0.106v0.106h0.105V79h6V65h4l1-5h-0.127l0.021-0.105H71.73l0.021-0.106h-0.128l0.021-0.104 h-0.129l0.021-0.106h-0.129l0.021-0.106h-0.128l0.021-0.105h-0.127l0.021-0.106h-0.128l0.021-0.106h-0.06l0.021-0.105h-0.127 l0.021-0.105h-0.128l0.021-0.105H70.73l0.021-0.105h-0.128l0.021-0.106h-0.129l0.021-0.106h-0.128l0.021-0.105h-0.127l0.021-0.105 h-0.128l0.021-0.106h-0.128l0.021-0.106H69.98l0.021-0.104H69.88l0.021-0.106h-0.127l0.021-0.105h-0.128l0.021-0.106h-0.129 l0.021-0.106h-0.128l0.021-0.105h-0.127l0.021-0.105h-0.128l0.021-0.106h-0.128l0.021-0.104h-0.129l0.021-0.106h-0.128 l0.021-0.106h-0.127l0.021-0.105h-0.128l0.021-0.106h-0.129l0.021-0.104h-0.128l0.021-0.107h-0.127l0.021-0.105h-0.129 l0.021-0.105h-0.127l0.021-0.105h-0.127l0.021-0.106h-0.128l0.021-0.106h-0.129l0.021-0.105h-0.128l0.021-0.105h-0.127 l0.021-0.105h-0.128l0.021-0.105H67.42l0.021-0.106h-0.129l0.021-0.106h-0.113l0.021-0.105h-0.104 C67.407,54.305,68.253,54,70.029,54z" clip-path="url(#SVGID_2_)" enable-background="new" opacity=".5"/></g></g><path id="f_1_" fill="#FFF" d="M39,33l1-5l-5,0.001V24c0-1.544,0.784-2,3-2h2v-5c0,0-2.05,0-4,0c-4.072,0-7,2.435-7,7v4h-5v5h5 v14h6V33H39z"/></svg>