<svg xmlns="http://www.w3.org/2000/svg" xmlns:xlink="http://www.w3.org/1999/xlink" id="Instagram" width="64" height="64" enable-background="new 0 0 64 64" version="1.1" viewBox="0 0 64 64" xml:space="preserve"><linearGradient id="Circle_Shadow_1_" x1="1434.03" x2="1402.03" y1="-1816.999" y2="-1784.999" gradientTransform="matrix(1 0 0 -1 -1370 -1753)" gradientUnits="userSpaceOnUse"><stop offset=".316" style="stop-color:#fff;stop-opacity:0"/><stop offset=".351" style="stop-color:#e9e9e9;stop-opacity:.0504"/><stop offset=".454" style="stop-color:#acacac;stop-opacity:.2018"/><stop offset=".557" style="stop-color:#787878;stop-opacity:.3523"/><stop offset=".657" style="stop-color:#4d4d4d;stop-opacity:.4981"/><stop offset=".753" style="stop-color:#2b2b2b;stop-opacity:.6385"/><stop offset=".844" style="stop-color:#131313;stop-opacity:.7719"/><stop offset=".929" style="stop-color:#050505;stop-opacity:.8956"/><stop offset="1" style="stop-color:#000"/></linearGradient><polygon id="Circle_Shadow" fill="url(#Circle_Shadow_1_)" points="64.029 64 64.029 30.059 49 15.029 15.059 48.971 30.088 64" enable-background="new" opacity=".2"/><circle id="Circle" cx="32" cy="32" r="24" fill="#527FA3"/><g id="Camera_Shadow"><g><defs><circle id="SVGID_1_" cx="32.029" cy="32" r="24"/></defs><clipPath id="SVGID_2_"><use overflow="visible" xlink:href="#SVGID_1_"/></clipPath><linearGradient id="SVGID_3_" x1="351.89" x2="291.968" y1="-377.026" y2="-317.105" gradientTransform="matrix(1 0 0 -1 -274 -299)" gradientUnits="userSpaceOnUse"><stop offset=".525" style="stop-color:#000;stop-opacity:0"/><stop offset=".591" style="stop-color:#000;stop-opacity:.1381"/><stop offset="1" style="stop-color:#000"/></linearGradient><path fill="url(#SVGID_3_)" d="M78.143,50.488 c-0.031-0.037-0.072-0.069-0.105-0.105c-0.032-0.037-0.073-0.07-0.105-0.107c-0.033-0.037-0.074-0.069-0.107-0.105 c-0.032-0.038-0.072-0.068-0.105-0.105c-0.031-0.037-0.072-0.068-0.105-0.105c-0.032-0.038-0.072-0.068-0.106-0.105 c-0.03-0.037-0.071-0.068-0.104-0.104c-0.032-0.039-0.073-0.071-0.108-0.108c-0.03-0.037-0.071-0.068-0.104-0.104 c-0.031-0.037-0.071-0.069-0.104-0.104c-0.033-0.039-0.074-0.072-0.108-0.108c-0.031-0.038-0.072-0.07-0.106-0.107 c-0.031-0.036-0.07-0.065-0.103-0.102c-0.033-0.039-0.074-0.072-0.109-0.109c-0.031-0.038-0.071-0.067-0.104-0.104 c-0.033-0.039-0.074-0.07-0.107-0.107c-0.032-0.038-0.073-0.07-0.107-0.107c-0.031-0.035-0.07-0.066-0.104-0.103 c-0.033-0.039-0.075-0.071-0.109-0.11c-0.031-0.037-0.072-0.068-0.105-0.104c-0.031-0.038-0.071-0.069-0.105-0.105 c-0.032-0.037-0.072-0.07-0.105-0.105c-0.033-0.038-0.072-0.07-0.106-0.107c-0.032-0.037-0.072-0.068-0.106-0.105 c-0.031-0.038-0.072-0.07-0.106-0.107c-0.032-0.037-0.072-0.068-0.105-0.104c-0.032-0.039-0.071-0.069-0.106-0.105 c-0.031-0.038-0.071-0.07-0.105-0.107c-0.031-0.037-0.072-0.068-0.105-0.104c-0.032-0.038-0.072-0.069-0.106-0.106 c-0.032-0.037-0.071-0.069-0.106-0.106c-0.031-0.038-0.072-0.069-0.106-0.106c-0.031-0.037-0.072-0.068-0.104-0.105 c-0.033-0.037-0.074-0.069-0.106-0.105c-0.032-0.037-0.071-0.068-0.104-0.104c-0.033-0.039-0.074-0.071-0.108-0.109 c-0.031-0.035-0.07-0.066-0.104-0.104c-0.033-0.038-0.074-0.071-0.109-0.109c-0.03-0.037-0.07-0.068-0.104-0.104 c-0.033-0.039-0.076-0.073-0.111-0.111c-0.029-0.035-0.067-0.064-0.101-0.1c-0.032-0.039-0.075-0.072-0.11-0.111 c-0.031-0.036-0.07-0.066-0.103-0.102c-0.033-0.039-0.073-0.072-0.108-0.109c-0.031-0.037-0.072-0.069-0.105-0.105 c-0.032-0.037-0.073-0.07-0.107-0.107c-0.031-0.037-0.07-0.067-0.104-0.104c-0.033-0.039-0.074-0.071-0.108-0.108 c-0.032-0.037-0.071-0.067-0.104-0.104c-0.032-0.037-0.072-0.069-0.106-0.104c-0.032-0.039-0.071-0.07-0.106-0.107 c-0.031-0.037-0.071-0.068-0.105-0.105c-0.032-0.039-0.073-0.069-0.105-0.106c-0.033-0.038-0.074-0.07-0.107-0.106 c-0.032-0.037-0.071-0.068-0.104-0.104c-0.033-0.038-0.074-0.07-0.107-0.107c-0.032-0.038-0.073-0.069-0.106-0.106 c-0.032-0.037-0.071-0.068-0.106-0.105c-0.031-0.037-0.071-0.068-0.105-0.105c-0.031-0.039-0.072-0.069-0.105-0.106 c-0.032-0.038-0.072-0.069-0.106-0.104c-0.032-0.039-0.073-0.07-0.106-0.108c-0.033-0.037-0.072-0.067-0.105-0.104 c-0.032-0.037-0.072-0.067-0.105-0.104c-0.031-0.037-0.072-0.069-0.104-0.104c-0.033-0.039-0.073-0.071-0.108-0.108 c-0.031-0.038-0.072-0.069-0.104-0.104c-0.033-0.039-0.073-0.07-0.107-0.107c-0.032-0.038-0.071-0.069-0.104-0.105 c-0.032-0.037-0.073-0.068-0.107-0.105c-0.031-0.038-0.07-0.069-0.104-0.105c-0.033-0.037-0.073-0.07-0.107-0.107 c-0.031-0.037-0.072-0.068-0.105-0.104c-0.032-0.038-0.072-0.069-0.106-0.106c-0.032-0.037-0.073-0.069-0.106-0.106 c-0.033-0.038-0.072-0.069-0.106-0.106c-0.032-0.037-0.072-0.067-0.104-0.104c-0.033-0.038-0.072-0.07-0.106-0.106 c-0.032-0.037-0.072-0.07-0.106-0.106c-0.031-0.037-0.072-0.069-0.105-0.104c-0.032-0.039-0.073-0.07-0.106-0.107 c-0.032-0.037-0.071-0.068-0.104-0.105s-0.074-0.07-0.108-0.107c-0.032-0.037-0.071-0.067-0.104-0.104 c-0.032-0.038-0.073-0.071-0.107-0.108c-0.031-0.037-0.071-0.067-0.104-0.104c-0.033-0.038-0.074-0.07-0.108-0.107 c-0.032-0.037-0.072-0.069-0.104-0.105c-0.033-0.038-0.074-0.07-0.107-0.107c-0.032-0.037-0.072-0.068-0.106-0.105 c-0.032-0.038-0.073-0.069-0.106-0.106c-0.031-0.036-0.071-0.067-0.104-0.104c-0.032-0.038-0.071-0.069-0.104-0.106 s-0.073-0.068-0.107-0.105c-0.031-0.038-0.072-0.069-0.105-0.105c-0.032-0.039-0.073-0.072-0.108-0.109 c-0.031-0.037-0.071-0.067-0.104-0.104c-0.031-0.038-0.072-0.07-0.106-0.107c-0.032-0.037-0.071-0.067-0.104-0.104 c-0.031-0.038-0.072-0.07-0.106-0.107c-0.032-0.037-0.072-0.068-0.106-0.104c-0.031-0.038-0.072-0.07-0.105-0.106 c-0.032-0.037-0.072-0.07-0.106-0.105c-0.032-0.039-0.073-0.07-0.106-0.108c-0.032-0.036-0.072-0.067-0.105-0.104 c-0.031-0.037-0.072-0.069-0.107-0.106c-0.03-0.036-0.069-0.067-0.104-0.104c-0.033-0.039-0.074-0.071-0.109-0.109 c-0.031-0.037-0.072-0.066-0.104-0.104s-0.072-0.069-0.106-0.105c-0.031-0.038-0.072-0.07-0.105-0.107 c-0.032-0.037-0.073-0.068-0.107-0.105c-0.031-0.038-0.072-0.069-0.105-0.105c-0.031-0.037-0.071-0.068-0.104-0.104 c-0.032-0.038-0.073-0.07-0.106-0.106c-0.032-0.037-0.071-0.068-0.104-0.104c-0.032-0.039-0.073-0.071-0.108-0.109 c-0.033-0.036-0.072-0.069-0.105-0.104c-0.032-0.037-0.072-0.069-0.105-0.105c-0.033-0.038-0.072-0.068-0.105-0.105 c-0.032-0.037-0.073-0.069-0.107-0.106c-0.031-0.037-0.072-0.069-0.104-0.104c-0.032-0.039-0.072-0.069-0.104-0.105 c-0.033-0.039-0.074-0.07-0.109-0.109c-0.031-0.037-0.07-0.067-0.104-0.104c-0.032-0.038-0.071-0.07-0.106-0.107 c-0.032-0.037-0.072-0.068-0.106-0.105c-0.032-0.037-0.071-0.069-0.104-0.105c-0.032-0.037-0.073-0.07-0.106-0.105 c-0.032-0.038-0.072-0.069-0.106-0.106c-0.031-0.036-0.072-0.069-0.105-0.104c-0.032-0.038-0.072-0.07-0.105-0.107 s-0.072-0.068-0.105-0.105s-0.074-0.069-0.108-0.107c-0.032-0.037-0.071-0.066-0.104-0.104c-0.032-0.039-0.073-0.071-0.107-0.108 c-0.031-0.037-0.072-0.068-0.105-0.104c-0.031-0.037-0.071-0.07-0.105-0.105c-0.031-0.038-0.072-0.07-0.105-0.107 c-0.032-0.037-0.072-0.068-0.105-0.104c-0.033-0.039-0.074-0.071-0.109-0.109c-0.031-0.036-0.07-0.065-0.103-0.103 c-0.033-0.038-0.075-0.071-0.11-0.109c-0.031-0.036-0.07-0.066-0.103-0.104c-0.033-0.039-0.074-0.07-0.108-0.107 c-0.031-0.038-0.072-0.068-0.105-0.105c-0.031-0.037-0.071-0.068-0.105-0.105c-0.031-0.038-0.072-0.07-0.107-0.107 c-0.031-0.037-0.071-0.068-0.104-0.104c-0.033-0.038-0.073-0.07-0.106-0.106c-0.031-0.037-0.071-0.068-0.104-0.104 c-0.033-0.039-0.074-0.071-0.108-0.109c-0.031-0.036-0.072-0.067-0.105-0.104c-0.032-0.038-0.073-0.07-0.108-0.107 c-0.03-0.037-0.069-0.066-0.104-0.104c-0.033-0.039-0.074-0.071-0.108-0.109c-0.031-0.037-0.072-0.068-0.105-0.104 c-0.031-0.037-0.07-0.068-0.104-0.104c-0.033-0.039-0.074-0.072-0.109-0.108c-0.031-0.039-0.071-0.07-0.105-0.105 c-0.031-0.037-0.07-0.068-0.104-0.105s-0.073-0.068-0.106-0.105c-0.033-0.038-0.073-0.07-0.106-0.107s-0.074-0.07-0.107-0.107 c-0.031-0.035-0.071-0.066-0.104-0.104c-0.033-0.038-0.074-0.07-0.109-0.107c-0.03-0.037-0.07-0.068-0.104-0.105 c-0.03-0.037-0.071-0.068-0.104-0.104c-0.032-0.039-0.073-0.071-0.107-0.108c-0.031-0.038-0.072-0.069-0.105-0.105 c-0.032-0.038-0.072-0.07-0.106-0.107c-0.032-0.038-0.071-0.069-0.104-0.106c-0.032-0.038-0.073-0.069-0.107-0.106 c-0.032-0.038-0.073-0.07-0.107-0.107c-0.031-0.037-0.07-0.067-0.104-0.103c-0.033-0.039-0.074-0.072-0.107-0.109 s-0.072-0.068-0.105-0.104c-0.032-0.038-0.072-0.07-0.106-0.107c-0.032-0.038-0.073-0.07-0.106-0.107 c-0.032-0.037-0.071-0.068-0.105-0.105c-0.031-0.038-0.072-0.07-0.105-0.106c-0.033-0.039-0.074-0.071-0.108-0.108 c-0.03-0.037-0.069-0.067-0.104-0.103c-0.031-0.039-0.072-0.072-0.107-0.109c-0.032-0.038-0.072-0.069-0.105-0.105 c-0.031-0.038-0.072-0.07-0.105-0.106c-0.032-0.038-0.073-0.07-0.105-0.107c-0.033-0.038-0.072-0.069-0.106-0.106 c-0.032-0.037-0.072-0.069-0.105-0.105c-0.032-0.039-0.073-0.071-0.108-0.108c-0.031-0.037-0.071-0.068-0.104-0.104 c-0.032-0.038-0.071-0.07-0.106-0.107c-0.031-0.037-0.071-0.069-0.105-0.105c-0.031-0.037-0.072-0.069-0.105-0.105 c-0.033-0.039-0.073-0.071-0.107-0.108c-0.031-0.038-0.071-0.068-0.104-0.104c-0.033-0.038-0.074-0.07-0.107-0.107 c-0.032-0.038-0.072-0.069-0.105-0.106c-0.031-0.037-0.072-0.069-0.104-0.105c-0.033-0.039-0.074-0.071-0.108-0.108 c-0.031-0.038-0.072-0.069-0.105-0.105c-0.032-0.038-0.072-0.07-0.106-0.107c-0.032-0.037-0.071-0.069-0.104-0.105 c-0.032-0.038-0.072-0.069-0.105-0.105c-0.033-0.039-0.074-0.071-0.109-0.109c-0.031-0.038-0.071-0.069-0.105-0.106 c-0.03-0.037-0.068-0.067-0.104-0.103c-0.033-0.039-0.074-0.072-0.108-0.11c-0.032-0.037-0.072-0.068-0.104-0.104 c-0.033-0.038-0.072-0.069-0.105-0.106c-0.033-0.038-0.073-0.071-0.108-0.108c-0.032-0.037-0.071-0.069-0.104-0.105 c-0.032-0.037-0.072-0.069-0.106-0.105c-0.032-0.038-0.073-0.07-0.106-0.107c-0.031-0.037-0.071-0.069-0.104-0.105 c-0.032-0.038-0.073-0.071-0.108-0.108c-0.031-0.037-0.07-0.067-0.104-0.103c-0.032-0.038-0.072-0.07-0.107-0.107 c-0.031-0.039-0.072-0.07-0.106-0.108c-0.031-0.037-0.071-0.068-0.104-0.104c-0.033-0.038-0.072-0.07-0.106-0.107 c-0.032-0.038-0.073-0.069-0.106-0.106c-0.031-0.037-0.072-0.069-0.105-0.105c-0.031-0.037-0.071-0.068-0.104-0.104 c-0.032-0.039-0.073-0.071-0.108-0.109c-0.031-0.038-0.072-0.069-0.106-0.106c-0.03-0.038-0.071-0.069-0.104-0.105 c-0.032-0.038-0.072-0.069-0.106-0.106c-0.032-0.038-0.071-0.069-0.104-0.106c-0.033-0.038-0.072-0.069-0.106-0.106 c-0.032-0.038-0.072-0.07-0.106-0.106c-0.031-0.038-0.072-0.07-0.105-0.106c-0.032-0.038-0.072-0.07-0.105-0.106 c-0.033-0.038-0.072-0.069-0.106-0.106c-0.032-0.039-0.073-0.071-0.107-0.108c-0.03-0.037-0.071-0.068-0.104-0.104 c-0.032-0.039-0.073-0.071-0.107-0.109c-0.031-0.037-0.072-0.068-0.105-0.105c-0.031-0.038-0.072-0.069-0.105-0.106 c-0.031-0.038-0.072-0.069-0.105-0.106c-0.032-0.038-0.072-0.07-0.106-0.107c-0.032-0.038-0.072-0.069-0.106-0.106 c-0.031-0.038-0.072-0.07-0.105-0.106c-0.032-0.038-0.072-0.069-0.105-0.105c-0.033-0.039-0.074-0.071-0.108-0.109 c-0.031-0.037-0.07-0.067-0.104-0.104c-0.031-0.038-0.072-0.07-0.107-0.107c-0.031-0.038-0.071-0.07-0.105-0.106 c-0.031-0.038-0.072-0.069-0.105-0.106c-0.032-0.038-0.072-0.069-0.106-0.106c-0.032-0.038-0.073-0.07-0.106-0.107 c-0.031-0.037-0.071-0.068-0.104-0.104c-0.033-0.039-0.073-0.071-0.108-0.108c-0.031-0.037-0.07-0.068-0.104-0.104 c-0.033-0.039-0.074-0.071-0.107-0.109c-0.031-0.037-0.07-0.067-0.104-0.103c-0.032-0.039-0.073-0.071-0.108-0.109 c-0.031-0.038-0.072-0.069-0.105-0.106c-0.032-0.038-0.073-0.07-0.107-0.107c-0.031-0.037-0.07-0.067-0.104-0.104 c-0.032-0.038-0.073-0.071-0.107-0.108c-0.031-0.038-0.072-0.07-0.105-0.106c-0.032-0.038-0.073-0.07-0.107-0.107 c-0.031-0.038-0.071-0.069-0.105-0.105c-0.031-0.038-0.072-0.069-0.104-0.106c-0.033-0.038-0.074-0.07-0.108-0.107 c-0.031-0.038-0.07-0.069-0.104-0.105c-0.033-0.038-0.073-0.07-0.107-0.107c-0.031-0.038-0.072-0.07-0.107-0.107 c-0.03-0.038-0.071-0.069-0.104-0.106c-0.032-0.038-0.071-0.069-0.106-0.106c-0.031-0.038-0.071-0.07-0.105-0.106 c-0.031-0.038-0.072-0.07-0.107-0.107c-0.03-0.037-0.07-0.068-0.104-0.105c-0.033-0.038-0.072-0.07-0.107-0.107 c-0.031-0.038-0.072-0.069-0.104-0.105c-0.033-0.038-0.073-0.07-0.108-0.107c-0.031-0.038-0.07-0.069-0.104-0.105 c-0.032-0.038-0.072-0.069-0.106-0.106c-0.031-0.037-0.07-0.068-0.104-0.105c-0.033-0.039-0.074-0.071-0.109-0.109 c-0.031-0.037-0.072-0.068-0.105-0.105c-0.031-0.038-0.071-0.069-0.104-0.105c-0.032-0.038-0.073-0.07-0.106-0.107 c-0.032-0.038-0.072-0.069-0.105-0.106c-0.031-0.037-0.072-0.068-0.105-0.105c-0.033-0.039-0.073-0.072-0.108-0.11 c-0.031-0.037-0.071-0.068-0.104-0.104c-0.031-0.037-0.072-0.069-0.104-0.105c-0.032-0.039-0.073-0.071-0.108-0.108 c-0.031-0.038-0.072-0.069-0.105-0.106c-0.031-0.037-0.071-0.069-0.105-0.105c-0.031-0.039-0.072-0.071-0.107-0.108 c-0.03-0.037-0.07-0.068-0.104-0.104c-0.033-0.038-0.072-0.07-0.107-0.107c-0.031-0.038-0.072-0.07-0.106-0.107 c-0.032-0.037-0.071-0.068-0.104-0.104c-0.031-0.038-0.072-0.07-0.106-0.107c-0.032-0.038-0.072-0.069-0.104-0.106 c-0.033-0.038-0.074-0.07-0.108-0.107C45.43,17.67,44.165,17.042,43,17c0,0-22.471,0-22.5,0c-1.918,0-3.473,1.586-3.496,3.5 L17,20.458c0,0,0,23.028,0,23.042c0,0.994,0.418,1.886,1.083,2.523c0.035,0.035,0.07,0.07,0.106,0.105 c0.035,0.036,0.07,0.071,0.106,0.105c0.035,0.037,0.07,0.072,0.107,0.106c0.035,0.036,0.07,0.071,0.107,0.106 c0.035,0.037,0.07,0.07,0.106,0.105c0.035,0.036,0.069,0.07,0.105,0.105c0.035,0.035,0.069,0.07,0.105,0.104 c0.035,0.037,0.071,0.073,0.107,0.108c0.036,0.037,0.072,0.071,0.109,0.108c0.034,0.035,0.067,0.067,0.103,0.103 c0.036,0.037,0.072,0.073,0.109,0.108c0.035,0.037,0.07,0.07,0.106,0.105c0.035,0.036,0.07,0.071,0.107,0.105 c0.034,0.037,0.069,0.07,0.105,0.104c0.035,0.037,0.07,0.072,0.107,0.106c0.035,0.037,0.069,0.07,0.105,0.104 c0.035,0.037,0.07,0.072,0.106,0.107c0.036,0.036,0.072,0.073,0.11,0.108c0.034,0.035,0.068,0.068,0.103,0.104 c0.036,0.037,0.072,0.072,0.109,0.109c0.035,0.035,0.069,0.069,0.105,0.104c0.035,0.036,0.07,0.07,0.106,0.105 c0.035,0.037,0.07,0.071,0.106,0.106c0.034,0.036,0.069,0.069,0.104,0.104c0.036,0.037,0.072,0.072,0.109,0.108 c0.035,0.036,0.07,0.071,0.107,0.106c0.034,0.035,0.068,0.068,0.104,0.104c0.035,0.037,0.07,0.072,0.107,0.107 c0.035,0.035,0.07,0.07,0.107,0.105c0.035,0.036,0.07,0.071,0.106,0.106c0.035,0.036,0.07,0.071,0.107,0.106 c0.035,0.035,0.07,0.07,0.106,0.105c0.035,0.036,0.069,0.07,0.106,0.105c0.035,0.037,0.071,0.071,0.108,0.106 c0.034,0.036,0.069,0.069,0.104,0.104c0.035,0.037,0.07,0.071,0.106,0.105c0.035,0.037,0.07,0.072,0.107,0.107 c0.035,0.035,0.07,0.07,0.106,0.105c0.036,0.036,0.071,0.072,0.108,0.107c0.034,0.035,0.069,0.07,0.104,0.104 c0.035,0.036,0.07,0.071,0.106,0.105c0.034,0.035,0.069,0.07,0.105,0.104c0.036,0.038,0.072,0.074,0.11,0.11 c0.034,0.035,0.068,0.068,0.104,0.104c0.035,0.037,0.069,0.072,0.106,0.106c0.035,0.037,0.071,0.071,0.108,0.108 c0.035,0.035,0.07,0.07,0.106,0.104c0.034,0.036,0.069,0.071,0.105,0.104c0.035,0.037,0.07,0.072,0.106,0.106 c0.035,0.037,0.071,0.072,0.108,0.106c0.034,0.037,0.069,0.07,0.105,0.104c0.035,0.037,0.07,0.071,0.106,0.106 c0.036,0.037,0.071,0.072,0.108,0.107c0.034,0.035,0.068,0.069,0.104,0.104c0.036,0.036,0.072,0.073,0.11,0.11 c0.034,0.035,0.067,0.067,0.103,0.103c0.035,0.037,0.071,0.071,0.108,0.108c0.035,0.035,0.069,0.069,0.105,0.104 c0.035,0.036,0.07,0.071,0.106,0.106c0.035,0.035,0.07,0.07,0.106,0.104c0.035,0.037,0.07,0.072,0.106,0.106 c0.035,0.037,0.071,0.072,0.107,0.106c0.035,0.037,0.07,0.072,0.107,0.106c0.034,0.035,0.069,0.07,0.105,0.105 c0.036,0.036,0.071,0.071,0.108,0.106c0.035,0.036,0.069,0.069,0.105,0.104c0.035,0.035,0.07,0.071,0.106,0.105 c0.035,0.037,0.07,0.072,0.106,0.107c0.035,0.035,0.071,0.071,0.108,0.106c0.035,0.036,0.069,0.069,0.105,0.104 c0.035,0.035,0.07,0.07,0.106,0.105c0.035,0.036,0.071,0.071,0.107,0.105c0.035,0.037,0.07,0.072,0.106,0.106 c0.035,0.036,0.07,0.071,0.107,0.106c0.035,0.037,0.07,0.072,0.106,0.105c0.035,0.037,0.071,0.072,0.107,0.107 c0.034,0.035,0.068,0.068,0.104,0.104c0.035,0.037,0.071,0.072,0.108,0.107c0.035,0.035,0.069,0.07,0.105,0.105 c0.035,0.036,0.07,0.071,0.106,0.106c0.035,0.036,0.07,0.071,0.107,0.106c0.035,0.035,0.069,0.069,0.105,0.104 c0.035,0.036,0.071,0.071,0.107,0.106c0.035,0.037,0.07,0.072,0.107,0.106c0.035,0.037,0.071,0.072,0.108,0.108 c0.034,0.035,0.068,0.068,0.104,0.103c0.035,0.037,0.071,0.072,0.107,0.107c0.035,0.036,0.07,0.071,0.106,0.106 c0.035,0.035,0.069,0.069,0.105,0.104c0.036,0.036,0.072,0.073,0.11,0.108c0.033,0.035,0.067,0.068,0.103,0.104 c0.036,0.037,0.072,0.072,0.11,0.109c0.034,0.035,0.067,0.068,0.102,0.103c0.036,0.037,0.072,0.074,0.11,0.108 c0.034,0.037,0.069,0.07,0.104,0.105c0.035,0.036,0.069,0.07,0.105,0.105c0.036,0.037,0.072,0.072,0.109,0.107 c0.034,0.035,0.068,0.069,0.104,0.104c0.036,0.037,0.072,0.074,0.11,0.109c0.034,0.035,0.068,0.069,0.104,0.104 c0.035,0.036,0.071,0.071,0.107,0.108c0.035,0.035,0.07,0.07,0.107,0.105c0.035,0.036,0.07,0.07,0.106,0.105 c0.035,0.035,0.07,0.07,0.106,0.105c0.035,0.036,0.07,0.071,0.106,0.105c0.035,0.037,0.069,0.07,0.105,0.105 c0.035,0.036,0.07,0.071,0.107,0.105c0.036,0.037,0.071,0.074,0.108,0.108c0.034,0.036,0.069,0.07,0.104,0.104 c0.035,0.035,0.07,0.07,0.106,0.105c0.035,0.036,0.07,0.071,0.107,0.106c0.035,0.036,0.069,0.071,0.106,0.106 c0.036,0.036,0.072,0.071,0.109,0.107c0.034,0.035,0.068,0.068,0.103,0.104c0.036,0.035,0.071,0.071,0.108,0.106 c0.035,0.037,0.071,0.071,0.107,0.106c0.034,0.037,0.069,0.07,0.105,0.104c0.035,0.037,0.071,0.072,0.107,0.108 c0.035,0.035,0.07,0.07,0.106,0.104c0.036,0.037,0.071,0.072,0.108,0.107c0.033,0.034,0.067,0.069,0.102,0.103 c0.036,0.038,0.073,0.074,0.11,0.11c0.034,0.034,0.068,0.069,0.104,0.104c0.036,0.036,0.071,0.071,0.108,0.107 c0.034,0.035,0.069,0.07,0.105,0.105c0.035,0.035,0.069,0.069,0.105,0.104c0.036,0.037,0.072,0.072,0.109,0.109 c0.034,0.035,0.069,0.069,0.105,0.104c0.035,0.037,0.071,0.073,0.107,0.107c0.035,0.037,0.07,0.072,0.107,0.105 c0.034,0.036,0.069,0.07,0.104,0.104c0.035,0.037,0.069,0.072,0.106,0.106c0.035,0.036,0.07,0.072,0.107,0.107 c0.035,0.036,0.071,0.071,0.108,0.106c0.034,0.035,0.069,0.07,0.104,0.104c0.036,0.037,0.071,0.073,0.109,0.108 c0.034,0.035,0.068,0.069,0.104,0.104c0.035,0.037,0.07,0.072,0.107,0.107c0.034,0.035,0.068,0.07,0.105,0.105 c0.035,0.036,0.069,0.071,0.106,0.105c0.035,0.037,0.07,0.072,0.106,0.106c0.035,0.036,0.068,0.07,0.104,0.104 c0.035,0.037,0.071,0.074,0.108,0.108c0.033,0.036,0.068,0.07,0.104,0.104c0.035,0.035,0.069,0.07,0.105,0.105 c0.035,0.036,0.07,0.072,0.107,0.107c0.035,0.035,0.07,0.07,0.106,0.105c0.035,0.037,0.069,0.07,0.106,0.105 c0.033,0.036,0.067,0.07,0.104,0.104c0.036,0.039,0.072,0.075,0.111,0.111c0.033,0.034,0.065,0.066,0.101,0.102 c0.036,0.037,0.071,0.072,0.108,0.107c0.035,0.037,0.07,0.072,0.105,0.105c0.035,0.037,0.069,0.072,0.105,0.105 c0.035,0.036,0.07,0.072,0.107,0.107c0.033,0.035,0.068,0.07,0.105,0.105c0.035,0.037,0.072,0.073,0.109,0.108 c0.032,0.034,0.065,0.067,0.101,0.103c0.036,0.036,0.071,0.072,0.11,0.108c0.033,0.036,0.068,0.069,0.104,0.104 c0.034,0.037,0.069,0.071,0.106,0.106c0.033,0.036,0.068,0.071,0.105,0.106c0.034,0.035,0.069,0.07,0.105,0.105 c0.035,0.036,0.07,0.072,0.107,0.107c0.034,0.035,0.069,0.07,0.105,0.104c0.035,0.037,0.07,0.072,0.107,0.107 c0.033,0.035,0.068,0.07,0.104,0.104c0.034,0.036,0.069,0.071,0.106,0.106c0.033,0.035,0.068,0.07,0.105,0.105 c0.033,0.036,0.068,0.071,0.105,0.106c0.035,0.036,0.07,0.071,0.107,0.106c0.034,0.035,0.066,0.069,0.104,0.104 c0.037,0.038,0.072,0.074,0.11,0.111c0.033,0.033,0.065,0.066,0.101,0.101c0.037,0.038,0.074,0.076,0.113,0.112 c0.033,0.035,0.066,0.068,0.102,0.102c0.035,0.037,0.072,0.073,0.109,0.107c0.034,0.037,0.069,0.072,0.106,0.107 c0.032,0.035,0.067,0.069,0.103,0.104c0.036,0.037,0.073,0.074,0.111,0.111c0.033,0.034,0.066,0.068,0.104,0.103 c0.035,0.037,0.07,0.071,0.106,0.106c0.035,0.037,0.07,0.071,0.106,0.106c0.035,0.036,0.068,0.069,0.104,0.104 c0.035,0.037,0.072,0.074,0.109,0.109c0.034,0.035,0.067,0.068,0.102,0.102c0.037,0.039,0.073,0.076,0.111,0.111 c0.034,0.035,0.067,0.069,0.104,0.104c0.034,0.037,0.07,0.072,0.106,0.107c0.035,0.036,0.069,0.07,0.106,0.105 c0.033,0.035,0.068,0.07,0.105,0.105c0.034,0.036,0.068,0.071,0.105,0.106c0.035,0.036,0.069,0.071,0.105,0.104 c0.036,0.037,0.072,0.073,0.109,0.109c0.033,0.034,0.066,0.068,0.103,0.102c0.036,0.039,0.072,0.074,0.11,0.111 c0.033,0.035,0.068,0.069,0.104,0.104c0.034,0.037,0.069,0.072,0.106,0.106c0.034,0.036,0.069,0.071,0.106,0.106 c0.033,0.035,0.068,0.07,0.104,0.105c0.036,0.036,0.071,0.072,0.108,0.107c0.033,0.035,0.067,0.068,0.104,0.104 c0.035,0.037,0.07,0.072,0.107,0.108c0.035,0.036,0.069,0.069,0.105,0.104c0.035,0.037,0.07,0.071,0.105,0.106 c0.035,0.036,0.07,0.069,0.105,0.104c0.035,0.037,0.071,0.072,0.107,0.107c0.035,0.036,0.07,0.071,0.105,0.105 c0.034,0.035,0.069,0.07,0.105,0.105c0.035,0.037,0.072,0.073,0.109,0.109c0.033,0.035,0.068,0.07,0.104,0.104 c0.034,0.035,0.067,0.07,0.104,0.104c0.035,0.036,0.069,0.071,0.106,0.106c0.034,0.036,0.069,0.071,0.106,0.106 c0.035,0.037,0.07,0.071,0.107,0.108c0.033,0.033,0.067,0.067,0.102,0.102c0.037,0.038,0.074,0.075,0.111,0.111 c0.034,0.035,0.067,0.067,0.104,0.103c0.035,0.037,0.072,0.073,0.109,0.108c0.033,0.035,0.068,0.07,0.104,0.104 c0.034,0.036,0.069,0.071,0.106,0.106c0.034,0.035,0.069,0.072,0.105,0.107c0.035,0.035,0.07,0.069,0.105,0.104 c0.035,0.036,0.07,0.071,0.107,0.106c0.034,0.035,0.068,0.069,0.104,0.104c0.035,0.037,0.07,0.072,0.107,0.107 c0.035,0.037,0.07,0.07,0.105,0.105c0.035,0.036,0.07,0.07,0.106,0.105c0.035,0.037,0.07,0.072,0.107,0.107 c0.032,0.035,0.067,0.069,0.103,0.104c0.036,0.037,0.072,0.074,0.109,0.109c0.033,0.035,0.068,0.069,0.104,0.104 c0.036,0.038,0.072,0.073,0.109,0.108c0.034,0.035,0.068,0.069,0.104,0.104c0.037,0.037,0.072,0.073,0.109,0.108 c0.034,0.035,0.068,0.069,0.104,0.104c0.035,0.036,0.069,0.071,0.105,0.104c0.035,0.037,0.071,0.073,0.107,0.108 c0.033,0.036,0.068,0.07,0.104,0.104c0.036,0.037,0.072,0.074,0.11,0.11c0.033,0.035,0.068,0.069,0.104,0.104 c0.034,0.035,0.069,0.07,0.106,0.105c0.034,0.036,0.069,0.071,0.106,0.106c0.033,0.036,0.068,0.071,0.105,0.106 c0.035,0.035,0.07,0.071,0.105,0.106c0.035,0.036,0.07,0.069,0.106,0.104c0.035,0.037,0.069,0.071,0.106,0.106 c0.035,0.036,0.07,0.069,0.105,0.104c0.034,0.037,0.069,0.071,0.105,0.106c0.035,0.036,0.07,0.071,0.106,0.106 c0.034,0.035,0.069,0.07,0.106,0.105c0.035,0.036,0.07,0.072,0.107,0.107c0.033,0.035,0.067,0.07,0.104,0.104 c0.035,0.037,0.072,0.073,0.109,0.109c0.033,0.035,0.067,0.068,0.104,0.104c0.035,0.036,0.07,0.07,0.105,0.105 c0.035,0.037,0.07,0.072,0.106,0.107c0.035,0.035,0.069,0.07,0.104,0.104c0.037,0.037,0.072,0.073,0.109,0.108 c0.033,0.035,0.067,0.067,0.102,0.102c0.037,0.038,0.074,0.075,0.113,0.111c0.032,0.035,0.066,0.068,0.103,0.104 c0.034,0.036,0.069,0.072,0.106,0.107c0.034,0.035,0.069,0.07,0.106,0.105c0.034,0.036,0.069,0.071,0.106,0.106 c0.035,0.036,0.069,0.071,0.106,0.106c0.034,0.036,0.069,0.07,0.104,0.105c0.035,0.036,0.07,0.07,0.106,0.105 c0.035,0.037,0.069,0.07,0.106,0.105c0.033,0.036,0.068,0.07,0.105,0.105c0.034,0.037,0.069,0.071,0.105,0.106 c0.035,0.036,0.07,0.071,0.106,0.106c0.035,0.035,0.07,0.072,0.107,0.106c0.034,0.035,0.067,0.07,0.104,0.104 c0.034,0.037,0.07,0.072,0.107,0.107c0.033,0.036,0.068,0.069,0.104,0.104c0.035,0.036,0.071,0.073,0.108,0.108 c0.034,0.035,0.069,0.069,0.104,0.104c0.035,0.036,0.069,0.071,0.106,0.106c0.034,0.035,0.069,0.07,0.106,0.105 c0.035,0.036,0.068,0.07,0.104,0.105c0.035,0.037,0.072,0.072,0.108,0.108c0.033,0.035,0.068,0.069,0.104,0.103 c0.035,0.037,0.071,0.074,0.107,0.108c0.034,0.036,0.069,0.07,0.106,0.104c0.032,0.035,0.066,0.07,0.103,0.104 c0.036,0.038,0.073,0.074,0.11,0.11c0.035,0.035,0.068,0.07,0.104,0.105c0.035,0.035,0.069,0.07,0.106,0.105 c0.035,0.036,0.069,0.07,0.106,0.105c0.034,0.037,0.069,0.071,0.104,0.105c0.035,0.036,0.069,0.07,0.106,0.105 c0.034,0.037,0.069,0.071,0.106,0.106c0.033,0.036,0.068,0.071,0.105,0.106c0.034,0.035,0.069,0.07,0.106,0.105 c0.034,0.037,0.071,0.072,0.108,0.108c0.033,0.034,0.067,0.069,0.104,0.103c0.035,0.037,0.07,0.073,0.107,0.108 c0.034,0.036,0.069,0.069,0.105,0.104c0.034,0.036,0.068,0.071,0.105,0.106C50.645,78.582,51.536,79,52.529,79c0.014,0,23,0,23,0 c1.873-0.066,3.5-1.609,3.5-3.5c0-0.014,0-23,0-23C79.021,51.753,78.67,51.063,78.143,50.488z" clip-path="url(#SVGID_2_)" enable-background="new" opacity=".5"/></g></g><path id="camera" fill="#FFF" d="M43,17c0,0-22.471,0-22.5,0c-1.918,0-3.473,1.586-3.496,3.5L17,20.459c0,0,0,23.027,0,23.041 c0,1.934,1.567,3.5,3.5,3.5c0.014,0,23,0,23,0c1.873-0.066,3.5-1.609,3.5-3.5c0-0.014,0-23,0-23C46.979,18.629,44.859,17.066,43,17z M32,26.5c3.038,0,5.5,2.463,5.5,5.5c0,3.036-2.462,5.5-5.5,5.5c-3.037,0-5.5-2.464-5.5-5.5C26.5,28.963,28.963,26.5,32,26.5z M43,41c0,1.104-0.896,2-2,2h-9h-9c-1.104,0-2-0.896-2-2V29.5h2.359C23.13,30.295,23,31.132,23,32c0,4.971,4.031,9,9,9s9-4.029,9-9 c0-0.868-0.13-1.705-0.359-2.5H43V41z M43,22.008v3.016h-0.005c-0.013,0.535-0.442,0.965-0.979,0.974V26H39 c-0.545,0-0.982-0.436-0.995-0.977H38v-3.016h0.002C38.002,22.005,38,22.003,38,22c0-0.553,0.447-1,1-1h3.016v0.003 C42.561,21.012,43,21.453,43,22c0,0.003-0.002,0.005-0.002,0.008H43z"/></svg>